<?xml version="1.0" encoding="UTF-8"?>
<svg width="200px" height="220px" viewBox="0 0 200 220" version="1.1" xmlns="http://www.w3.org/2000/svg" xmlns:xlink="http://www.w3.org/1999/xlink">
    <!-- Generator: Sketch 54 (76480) - https://sketchapp.com -->
    <title>Group</title>
    <desc>Created with Sketch.</desc>
    <g id="Page-1" stroke="none" stroke-width="1" fill="none" fill-rule="evenodd">
        <g id="Home_1" transform="translate(-418.000000, -519.000000)">
            <g id="Group" transform="translate(418.000000, 519.000000)">
                <polygon id="Rectangle" fill="#EBC035" points="46.0048542 39 119 39 105.79162 174 33 174"></polygon>
                <polygon id="Rectangle" fill="#59CBC9" points="101.004854 5.68434189e-14 174 5.68434189e-14 160.79162 137 88 137"></polygon>
                <g id="ballons" transform="translate(0.000000, 0.000000)" fill="#000000" fill-rule="nonzero">
                    <path d="M197.68657,58.4123229 C197.165754,56.7120361 195.363059,55.7536315 193.657807,56.2756348 C191.954236,56.797638 190.996606,58.6003112 191.519102,60.3022767 C192.866503,64.6931459 193.548604,69.4549561 193.548604,74.4567871 C193.548604,100.719757 174.826115,128.496704 157.115017,128.518524 C157.108296,128.518524 157.099896,128.518524 157.093176,128.518524 C157.086455,128.518524 157.079735,128.518524 157.073015,128.518524 C146.730621,128.505096 135.469238,118.934479 128.011492,103.967591 C139.104869,89.8382568 145.914116,70.2236941 145.914116,53.069763 C145.914116,47.3898313 145.201774,41.91803 143.829172,36.7886355 C147.982258,35.1672363 152.431034,34.3447878 157.094855,34.3447878 C168.445281,34.3447878 178.419744,39.1603089 185.18195,47.9034424 C186.272303,49.3133545 188.298444,49.5718386 189.708007,48.4841921 C191.11757,47.3948668 191.376298,45.3723145 190.287625,43.9624023 C182.391385,33.7539675 170.293337,27.8994753 157.094855,27.8994753 C151.742213,27.8994753 146.614697,28.825989 141.809751,30.6555176 C134.140318,11.2541198 116.75347,0 97.0431099,0 C88.3034844,0 79.8427472,2.25585938 72.5782064,6.52420055 C71.0426399,7.42553711 70.5285441,9.40109242 71.4324118,10.9352113 C72.3345991,12.4693297 74.3120191,12.9812624 75.8475856,12.0799254 C82.1225764,8.39401234 89.4526394,6.4453125 97.0431099,6.4453125 C121.622257,6.4453125 139.461039,26.0531614 139.461039,53.069763 C139.461039,80.6939697 119.491953,115.736999 97.0464702,115.738678 C97.0464702,115.738678 97.0447903,115.738678 97.0431099,115.738678 C97.0431099,115.738678 97.04143,115.738678 97.03975,115.738678 C74.5959476,115.735321 54.6268608,80.6922914 54.6268608,53.069763 C54.6268608,40.6155398 58.259131,29.6148682 65.13222,21.2544252 C66.2628943,19.8797607 66.0629681,17.8488157 64.6870066,16.7192077 C63.3093647,15.5895996 61.2765027,15.7876589 60.1458284,17.1640013 C53.6406707,25.0762939 49.6925504,34.9876403 48.5383557,46.1175537 C45.5293841,45.3974916 42.4212894,45.0248717 39.2459931,45.0248717 C17.4288501,45.0248717 0,62.0915221 0,87.5857546 C0,97.5827024 2.80904539,108.470917 7.90968045,118.247986 C8.7329057,119.825745 10.6817649,120.438385 12.2610125,119.615936 C13.8419409,118.793488 14.4551594,116.846466 13.6302543,115.268707 C9.00171387,106.394653 6.45139612,96.5638734 6.45139612,87.5857546 C6.45139612,66.6586302 20.2429353,51.4701842 39.2459931,51.4701842 C42.3188064,51.4701842 45.3143376,51.8814089 48.1821848,52.6803587 C48.0746616,71.7913818 56.3169919,93.0424498 68.5057626,106.894837 C62.4222977,124.073944 50.3108092,136.361999 39.2459931,136.361999 C31.8672088,136.361999 25.6375794,131.262817 21.7113001,126.984406 C20.5067036,125.671844 18.4671214,125.584564 17.1533212,126.786346 C15.8395215,127.989807 15.7521589,130.029144 16.9550754,131.340027 C21.7902622,136.608734 27.0337019,140.125122 32.3913847,141.756592 L30.0359533,150.944519 C29.5134573,152.980499 31.054064,154.967804 33.1608479,154.967804 L37.8145896,154.967804 C41.6686265,159.716187 41.3863779,166.725464 36.9644835,171.143188 C29.7251435,178.375702 29.7251435,190.145111 36.9644835,197.377624 C41.6887876,202.099152 41.6887876,209.778137 36.9644835,214.497986 C35.7044454,215.756836 35.7044454,217.797852 36.9644835,219.055023 C38.224522,220.313873 40.2674641,220.313873 41.5258223,219.055023 C48.7668426,211.82251 48.7668426,200.053101 41.5258223,192.820587 C36.8015187,188.100739 36.8015187,180.420075 41.5258223,175.700226 C47.1287927,170.104217 48.3921911,161.79245 45.3244176,154.967804 L45.3311383,154.967804 C47.4345618,154.967804 48.9785288,152.982178 48.4560328,150.944519 L46.1039613,141.771698 C58.2288903,138.094177 68.0941502,125.168304 73.4820736,111.931915 C78.5491077,116.465454 83.9655923,119.587402 89.4358386,121.11145 C89.2594334,121.613312 89.4946405,120.75058 86.2067807,133.570709 C85.6842847,135.606689 87.2248919,137.593994 89.3316757,137.593994 L93.8678136,137.593994 C94.5263936,141.545105 96.3878902,145.187378 99.279258,148.077698 C101.688451,150.484619 103.032492,153.672028 103.072814,157.069244 C101.475085,155.788574 99.4472631,155.021515 97.244716,155.021515 C92.1003999,155.021515 87.9137126,159.202575 87.9137126,164.343719 C87.9137126,169.144134 91.5678238,173.110352 96.243406,173.610534 C89.4190383,180.522461 89.4475991,191.692658 96.3290883,198.569336 C100.735862,202.971954 100.735862,210.095368 96.3290883,214.497986 C95.0690502,215.756836 95.0690502,217.797852 96.3290883,219.056702 C97.5891268,220.313873 99.6320689,220.313873 100.890427,219.056702 C107.802157,212.151489 107.802157,200.915833 100.890427,194.01062 C96.4954135,189.619751 96.4954135,182.472839 100.890427,178.080292 C103.675952,175.299072 105.508887,171.821289 106.22963,168.04306 C108.373374,164.872437 109.52421,161.137848 109.52421,157.22702 C109.52421,152.04895 107.506468,147.181396 103.842277,143.520661 C102.175666,141.855621 101.019791,139.816284 100.451934,137.593994 L104.754545,137.593994 C106.857968,137.593994 108.401936,135.608368 107.87944,133.570709 C104.581499,120.713654 104.826787,121.609955 104.650381,121.11145 C111.160579,119.297028 117.590135,115.216675 123.451833,109.196014 C130.437485,122.125244 140.002016,130.975799 149.947918,133.904724 C149.825275,134.334411 150.33601,132.355499 147.263197,144.336395 C146.740701,146.372376 148.281308,148.358002 150.388092,148.358002 L151.3222,148.358002 C149.161655,153.970795 150.299049,160.624237 154.905749,165.224915 C158.56322,168.878937 158.56322,174.825745 154.905749,178.479767 C152.444474,180.938721 150.818185,184.00528 150.164645,187.340393 C145.72427,193.982086 146.361009,203.144837 152.340311,209.120178 C154.388294,211.166229 155.515608,213.885345 155.515608,216.777344 C155.515608,218.556519 156.960451,220 158.741306,220 C160.52216,220 161.967004,218.556519 161.967004,216.777344 C161.967004,212.163239 160.169349,207.82608 156.90333,204.563141 C155.092235,202.753754 154.000202,200.415649 153.773395,197.896271 C155.100635,198.748932 156.681563,199.244079 158.375055,199.244079 C163.079198,199.244079 166.906354,195.420532 166.906354,190.720825 C166.906354,186.608581 163.979705,183.169403 160.097107,182.370453 C165.604314,176.208801 165.483351,166.676788 159.467088,160.667877 C156.122106,157.32605 155.804576,152.069092 158.652263,148.358002 L163.79658,148.358002 C165.900003,148.358002 167.44397,146.374054 166.921475,144.336395 L164.297235,134.104462 C164.278754,134.033966 164.255233,133.968506 164.235073,133.899689 C184.390645,127.939453 200,98.8029479 200,74.4567871 C200,68.8154603 199.222136,63.4175111 197.68657,58.4123229 Z M37.3172944,148.522492 L38.6680555,143.257141 C38.8209403,142.661286 39.6727263,142.659607 39.8256106,143.257141 L41.1763717,148.522492 L37.3172944,148.522492 Z M97.5370451,167.203827 C95.6587478,167.390137 94.0963005,165.758667 94.4054299,163.861999 C94.5952756,162.700501 95.5125837,161.74881 96.6667785,161.523895 C98.3905111,161.188202 100.146164,162.401733 100.122644,164.524994 C100.107523,165.956726 98.8189242,167.077942 97.5370451,167.203827 Z M93.4881223,131.148682 L95.4756224,123.400879 C95.8905951,121.77948 98.1956251,121.77948 98.6122778,123.400879 L100.599778,131.148682 L93.4881223,131.148682 Z M160.417997,191.121979 C160.266792,191.925964 159.625013,192.585602 158.821948,192.753449 C157.481267,193.033753 156.293471,192.013245 156.293471,190.714111 C156.291791,189.540863 157.207419,188.78891 158.065925,188.664703 C159.485568,188.458252 160.686805,189.695282 160.417997,191.121979 Z M154.544538,141.912689 L156.137227,135.70404 C156.389234,134.722137 157.795437,134.720459 158.049124,135.70404 L159.640133,141.912689 L154.544538,141.912689 Z" id="Shape"></path>
                </g>
            </g>
        </g>
    </g>
</svg>